{"title":"11-11-11 (2011) DVDRip NL subs DutchReleaseTeam","uid":6797093,"size":744704182,"categoryP":"video","categoryS":"movies","magnet":"?xt=urn:btih:5199decfb2a5f8e35411f996201dc032aba82b6c&amp;dn=11-11-11+%282011%29+DVDRip+NL+subs+DutchReleaseTeam&amp;tr=udp%3A%2F%2Ftracker.openbittorrent.com%3A80&amp;tr=udp%3A%2F%2Fopen.demonii.com%3A1337&amp;tr=udp%3A%2F%2Ftracker.coppersurfer.tk%3A6969&amp;tr=udp%3A%2F%2Fexodus.desync.com%3A6969","seeders":3,"leechers":2,"uploader":"Koedje","files":-1,"time":1320498106,"description":" &lt;a href=&quot;http://img440.imageshack.us/img440/25/111111co.jpg&quot; rel=&quot;nofollow&quot; target=&quot;_NEW&quot;&gt;http://img440.imageshack.us/img440/25/111111co.jpg&lt;/a&gt;\n\n\nVerenigde Staten / Spanje\nHorror / Thriller\n95 minuten\n\ngeregisseerd door Darren Lynn Bousman\nmet Timothy Gibbs, Michael Landes en Wendy Glenn\n\nNa de tragische dood van zijn vrouw en kind reist de beroemde Amerikaanse auteur Joseph Crone van de Verenigde Staten naar Barcelona om zich te herenigen met zijn vervreemde broer Samuel en zijn stervende vader Richard. Echter, het lot heeft een ander plan voor Joseph wanneer zijn leven wordt geplaagd door vreemde gebeurtenissen en de constante waarnemingen van het getal 11. De nieuwsgierigheid slaat al snel om in een obsessie en Joseph begint zich te realiseren dat het getal een angstaanjagende betekenis heeft, niet alleen voor zichzelf maar mogelijk voor elke religie. Hij zit geisoleerd in een vreemd land met alleen de steun van zijn metgezel Sadie en hij beseft al snel dat 11/11/11 meer is dan alleen een datum, het is een waarschuwing.\n\n\n\n\n\nScreenshots:\n &lt;a href=&quot;\nhttp://img715.imageshack.us/img715/4678/screenshot1lu.jpg&quot; rel=&quot;nofollow&quot; target=&quot;_NEW&quot;&gt;\nhttp://img715.imageshack.us/img715/4678/screenshot1lu.jpg&lt;/a&gt;\n &lt;a href=&quot;\nhttp://img39.imageshack.us/img39/2234/screenshot2gzm.jpg&quot; rel=&quot;nofollow&quot; target=&quot;_NEW&quot;&gt;\nhttp://img39.imageshack.us/img39/2234/screenshot2gzm.jpg&lt;/a&gt;\n &lt;a href=&quot;\nhttp://img545.imageshack.us/img545/9587/screenshot4fm.jpg&quot; rel=&quot;nofollow&quot; target=&quot;_NEW&quot;&gt;\nhttp://img545.imageshack.us/img545/9587/screenshot4fm.jpg&lt;/a&gt;\n\n\n\nINFO;\n\n\nFormat                                   : AVI\nFormat/Info                              : Audio Video Interleave\nFile size                                : 700 MiB\nDuration                                 : 1h 32mn\nOverall bit rate mode                    : Variable\nOverall bit rate                         : 1 053 Kbps\nWriting application                      : VirtualDubMod 1.5.4.1 (build 2178/release)\nWriting library                          : VirtualDubMod build 2178/release\n\nVideo\nID                                       : 0\nFormat                                   : MPEG-4 Visual\nFormat profile                           : Advanced Simple@L5\nFormat settings, BVOP                    : 1\nFormat settings, QPel                    : No\nFormat settings, GMC                     : No warppoints\nFormat settings, Matrix                  : Custom\nCodec ID                                 : XVID\nCodec ID/Hint                            : XviD\nDuration                                 : 1h 32mn\nBit rate                                 : 924 Kbps\nWidth                                    : 720 pixels\nHeight                                   : 304 pixels\nDisplay aspect ratio                     : 2.35:1\nFrame rate                               : 25.000 fps\nColor space                              : YUV\nChroma subsampling                       : 4:2:0\nBit depth                                : 8 bits\nScan type                                : Progressive\nCompression mode                         : Lossy\nBits/(Pixel*Frame)                       : 0.169\nStream size                              : 614 MiB (88%)\nWriting library                          : XviD 64\n\nAudio\nID                                       : 1\nFormat                                   : MPEG Audio\nFormat version                           : Version 1\nFormat profile                           : Layer 3\nMode                                     : Joint stereo\nCodec ID                                 : 55\nCodec ID/Hint                            : MP3\nDuration                                 : 1h 32mn\nBit rate mode                            : Variable\nBit rate                                 : 116 Kbps\nNominal bit rate                         : 128 Kbps\nChannel(s)                               : 2 channels\nSampling rate                            : 48.0 KHz\nCompression mode                         : Lossy\nStream size                              : 77.0 MiB (11%)\nAlignment                                : Aligned on interleaves\nInterleave, duration                     : 24 ms (0.60 video frame)\nInterleave, preload duration             : 517 ms\n\n\n\n &lt;a href=&quot;\nhttp://www.imdb.com/title/tt1712159/&quot; rel=&quot;nofollow&quot; target=&quot;_NEW&quot;&gt;\nhttp://www.imdb.com/title/tt1712159/&lt;/a&gt; &lt;a href=&quot;\nhttp://www.moviemeter.nl/film/73328&quot; rel=&quot;nofollow&quot; target=&quot;_NEW&quot;&gt;\nhttp://www.moviemeter.nl/film/73328&lt;/a&gt;\n\n\n\n\nDeze film wordt u aangeboden door het DutchReleaseTeam.\nVoor de reviews van de nieuwste films, muziek, series, games etc\nga dan eens naar http://www.hetmultimediacafe.be\n\nDutchReleaseteam = Hardcoded Dutch Subs","torrent":{"xt":"urn:btih:5199decfb2a5f8e35411f996201dc032aba82b6c","amp;dn":"11-11-11+%282011%29+DVDRip+NL+subs+DutchReleaseTeam","amp;tr":["udp%3A%2F%2Ftracker.openbittorrent.com%3A80","udp%3A%2F%2Fopen.demonii.com%3A1337","udp%3A%2F%2Ftracker.coppersurfer.tk%3A6969","udp%3A%2F%2Fexodus.desync.com%3A6969"],"infoHash":"5199decfb2a5f8e35411f996201dc032aba82b6c","infoHashBuffer":{"type":"Buffer","data":[81,153,222,207,178,165,248,227,84,17,249,150,32,29,192,50,171,168,43,108]},"announce":[],"urlList":[]}}